<svg xmlns="http://www.w3.org/2000/svg" xmlns:xlink="http://www.w3.org/1999/xlink" version="1.1" width="3em" height="3em" x="0" y="0" viewBox="0 0 512 512" style="enable-background:new 0 0 512 512" xml:space="preserve" class="">
	<g>
		<g xmlns="http://www.w3.org/2000/svg">
			<g>
				<path d="M469.717,129.996h-9.91c-4.002,0-7.871,0.571-11.542,1.615c-3.741-19.515-20.93-34.309-41.519-34.309h-9.909    c-23.315,0-42.284,18.969-42.284,42.283v68.248H157.446v-76.607c0-23.315-18.969-42.283-42.283-42.283h-9.909    c-20.589,0-37.778,14.794-41.518,34.309c-3.672-1.044-7.541-1.615-11.543-1.615h-9.909C18.969,121.637,0,140.604,0,163.92V339.72    c0,23.315,18.969,42.283,42.283,42.283h9.909c4.002,0,7.871-0.571,11.543-1.615c3.741,19.515,20.93,34.309,41.518,34.309h9.909    c23.315,0,42.283-18.969,42.283-42.283v-61.402h197.107v69.762c0,23.315,18.969,42.283,42.284,42.283h9.909    c20.589,0,37.779-14.795,41.519-34.309c3.671,1.044,7.541,1.615,11.542,1.615h9.91c23.314,0,42.283-18.969,42.283-42.283V172.279    C512,148.964,493.031,129.996,469.717,129.996z M62.971,339.72c0,5.944-4.835,10.78-10.779,10.78h-9.909    c-5.944,0-10.779-4.836-10.779-10.78V163.92c0-5.944,4.835-10.779,10.779-10.779h9.909c5.944,0,10.779,4.835,10.779,10.779V339.72    z M125.942,372.415c0,5.944-4.835,10.779-10.779,10.779h-9.909c-5.944,0-10.779-4.835-10.779-10.779V131.224    c0-5.944,4.836-10.779,10.779-10.779h9.909c5.944,0,10.779,4.835,10.779,10.779V372.415z M354.554,279.509H157.446v-40.173    h197.107V279.509z M417.525,380.775c0,5.944-4.835,10.779-10.78,10.779h-9.909c-5.944,0-10.78-4.835-10.78-10.779V139.584    c0-5.944,4.835-10.779,10.78-10.779h9.909c5.944,0,10.78,4.835,10.78,10.779V380.775z M480.496,348.079    c0,5.944-4.835,10.779-10.779,10.779h-9.91c-5.943,0-10.779-4.835-10.779-10.779V172.279c0-5.944,4.835-10.779,10.779-10.779h9.91    c5.943,0,10.779,4.835,10.779,10.779V348.079z" fill="#dadfe6" data-original="#000000" style=""/>
			</g>
		</g>
	</g>
</svg>
