<svg xmlns="http://www.w3.org/2000/svg" xmlns:xlink="http://www.w3.org/1999/xlink" xmlns:svgjs="http://svgjs.com/svgjs" version="1.1" width="3em" height="3em" x="0" y="0" viewBox="0 0 510 510" style="enable-background:new 0 0 512 512" xml:space="preserve" class="">
  <g>
    <g xmlns="http://www.w3.org/2000/svg">
      <path d="m504.552 350.701c-7.906-24.961-23.811-42.174-44.784-48.47-19.005-5.708-38.759-1.189-55.711 9.724-3.968 2.553-8.552 3.974-13.33 4.116-.153-.003-.312-.011-.471-.005h-.54c-4.667 0-9.562-1.396-13.781-4.111-9.847-6.338-20.314-10.295-30.679-11.662v-270.293h-60v-30h-224.999v30h-60v420h285.121c17.723 36.237 48.229 60.003 79.492 60 5.787-.001 11.502-.836 16.968-2.477.111-.024 3.819-1.241 8.19-1.241.139.011 3.728-.093 7.92 1.18l.186.055c5.485 1.647 11.201 2.482 16.987 2.482 37.413 0 73.759-34.025 88.385-82.742 7.939-26.437 8.31-53.625 1.046-76.556zm-414.295-320.701h164.999v30h-164.999zm-60 30h30v30h224.999v-30h30v243.971c-18.515 7.388-32.548 23.781-39.817 46.73-6.6 20.837-6.874 45.189-.917 69.299h-244.265zm444.518 358.631c-10.504 34.986-36.149 61.369-59.652 61.369-2.862 0-5.676-.409-8.289-1.193-.616-.086-15.26-5.595-33.477-.059-.612.136-3.759 1.251-8.488 1.252-23.502.002-49.147-26.38-59.65-61.369-6.222-20.722-6.64-41.629-1.179-58.872 8.936-28.215 31.176-38.341 55.659-22.578 8.73 5.619 18.839 8.693 29.178 8.889.205 0 .401.012 1.007-.005 9.951.147 20.943-2.791 30.412-8.885 24.49-15.766 46.724-5.63 55.658 22.58 5.461 17.241 5.042 38.149-1.179 58.871z" fill="#dadfe6" data-original="#000000" style="" class=""/><path d="m180.256 120h105v30h-105z" fill="#dadfe6" data-original="#000000" style="" class=""/><path d="m180.256 180h105v30h-105z" fill="#dadfe6" data-original="#000000" style="" class=""/><path d="m150.256 120h-89.999v90h89.999zm-30 60h-29.999v-30h29.999z" fill="#dadfe6" data-original="#000000" style="" class=""/><path d="m60.257 240h164.999v30h-164.999z" fill="#dadfe6" data-original="#000000" style="" class=""/><path d="m60.257 300h164.999v30h-164.999z" fill="#dadfe6" data-original="#000000" style="" class=""/><path d="m345.256 390h30v29.968h-30z" fill="#dadfe6" data-original="#000000" style="" class=""/><path d="m405.256 390h30v29.968h-30z" fill="#dadfe6" data-original="#000000" style="" class=""/>
    </g>
  </g>
</svg>
