<svg xmlns="http://www.w3.org/2000/svg" xmlns:xlink="http://www.w3.org/1999/xlink" version="1.1" width="3em" height="3em" x="0" y="0" viewBox="0 0 512 512" style="enable-background:new 0 0 512 512" xml:space="preserve" class="">
  <g>
    <g xmlns="http://www.w3.org/2000/svg">
      <path d="m458.052 249.724c-14.548-12.54-31.968-20.472-50.402-23.163 5.457-10.115 8.572-21.671 8.572-33.949v-37.123h-28.683c-19.279 0-36.795 7.652-49.708 20.06-4.324-8.101-10.321-15.337-17.8-21.211l-16.725-13.133-18.526 23.595 16.725 13.133c9.028 7.089 14.205 17.736 14.205 29.214v30.787c-13.037-7.217-27.521-11.458-42.553-12.263-25.431-1.355-50.215 7.18-69.787 24.052-4.257 3.669-8.287 7.556-12.082 11.637-28.928-37.291-48.978-81.042-58.288-127.484l-11.224-55.987v-77.889h-83.132v73.292c-34.447 60.167-46.285 130.613-33.301 198.875 11.047 58.076 37.412 110.073 76.246 150.37 38.409 39.856 88.1 67.367 143.745 79.604 26.848 12.889 58.47 13.198 85.961-.263.747-.366 19.661-10.544 36.892-.971.449.25 18.831 10.911 45.312 11.091 22.597.154 44.974-7.796 62.993-22.905 35.143-29.467 55.299-73.333 55.299-120.349 0-46.2-19.587-89.581-53.739-119.02zm-112.322-22.427c0-22.613 18.047-41.091 40.494-41.789v7.104c0 22.613-18.047 41.091-40.494 41.789zm-173.119 58.773c-10.28 16.886-17.324 35.74-20.693 55.592-14.711-14.454-26.908-30.445-37.514-49.094-43.112-75.805-46.642-166.237-46.264-200.274h25.929l9.518 47.478c10.752 53.637 34.552 104.009 69.024 146.298zm-80.833-256.072v32.298h-23.136v-32.298zm11.411 371.722c-34.778-36.089-58.422-82.825-68.377-135.159-7.724-40.609-5.65-82.081 5.631-121.153.231 2.379.481 4.799.755 7.262 4.533 40.752 16.389 100.676 47.129 154.726 16.354 28.756 36.032 51.933 61.712 72.704 1.823 26.061 9.883 50.905 23.265 72.464-26.241-12.786-49.939-29.908-70.115-50.844zm334.029 64.386c-21.11 17.7-49.577 21.019-74.295 8.661-.118-.06-.241-.124-.393-.206-10.18-5.53-21.227-8.294-32.172-8.294-10.904 0-21.707 2.745-31.443 8.236-.288.162-.564.312-.821.437-24.663 12.078-54.157 8.194-75.139-9.895-27.535-23.736-43.328-58.835-43.328-96.3 0-37.463 15.793-72.563 43.328-96.299 28.368-24.454 69.444-22.248 95.544 5.129l12.206 12.816 12.211-12.812c26.102-27.38 67.181-29.587 95.548-5.133 27.535 23.735 43.328 58.836 43.328 96.3.001 38.121-16.246 73.608-44.574 97.36z" fill="#dadfe6" data-original="#000000" style="" class=""/>
    </g>
  </g>
</svg>
