<svg xmlns="http://www.w3.org/2000/svg" xmlns:xlink="http://www.w3.org/1999/xlink" xmlns:svgjs="http://svgjs.com/svgjs" version="1.1" width="3em" height="3em" x="0" y="0" viewBox="0 0 509.626 509.626" style="enable-background:new 0 0 512 512" xml:space="preserve" class=""><g><g xmlns="http://www.w3.org/2000/svg"><path d="m0 340.019h118.197v30h-118.197z" fill="#dadfe6" data-original="#000000" style=""/><path d="m422.237 311.063h-18.005l-51.036-159.633c-31.737 18.084-62.316 30.479-90.03 18.638-35.511-16.348-44.905-55.362-46.64-60.683l-64.451-42.169-125.168 175.269 258.358 169.925h-224.98v30h449.341v-43.956c0-48.188-39.203-87.391-87.389-87.391zm-315.649-128.532c17.967 27.96 43.696 50.451 80.418 72.372 57.17 33.715 61.817 74.316 59.318 95.989l-176.886-116.34zm373.038 229.879h-139.768l-66.48-43.725c16.367-62.006-25.93-114.495-71.133-139.623-52.05-30.697-70.301-60.428-76.248-73.708l33.754-47.265 31.313 20.487c18.924 53.322 71.382 97.33 144.248 65.428l10.629 33.245-38.353 12.342 9.189 28.559 38.3-12.325 10.305 32.233-35.077 11.291 9.193 28.557 35.02-11.273 7.811 24.43h39.909c31.645 0 57.39 25.745 57.39 57.391v13.956z" fill="#dadfe6" data-original="#000000" style=""/></g></g></svg>
