<svg id="Capa_1" enable-background="new 0 0 512 512" height="512" viewBox="0 0 512 512" width="512" xmlns="http://www.w3.org/2000/svg"><g><path d="m259.905 390.115 215.876-115.875-33.896-81.833-219.705 91.005-22.963-55.438 95.229-39.444c22.837-9.46 33.72-35.735 24.262-58.572-4.583-11.063-13.199-19.679-24.262-24.261s-23.247-4.582-34.311 0l-110.045 45.582c.683-8.409-.547-17.093-3.991-25.409-5.623-13.573-16.194-24.146-29.767-29.768-13.574-5.623-28.524-5.623-42.097 0-13.573 5.622-24.145 16.193-29.767 29.767-5.623 13.574-5.623 28.524 0 42.098 5.685 13.725 16.322 23.925 28.987 29.402-1.464 2.52-2.781 5.146-3.915 7.884-6.645 16.041-6.645 33.71 0 49.751l49.997 120.704c2.129 5.14 4.852 9.959 8.051 14.407h-127.588v30h512v-30zm177.773-129.47-130.882 70.252-17.699-42.73 136.553-56.562zm-166.063-127.231c1.851-.767 3.768-1.129 5.656-1.129 5.821 0 11.356 3.449 13.719 9.153 3.129 7.554-.472 16.246-8.025 19.375l-67.51 27.963-11.349-27.399zm-199.431 3.937c2.556-6.171 7.361-10.976 13.532-13.531 3.085-1.278 6.326-1.917 9.567-1.917 3.242 0 6.483.639 9.568 1.917 6.17 2.556 10.976 7.361 13.531 13.531 5.275 12.735-.793 27.388-13.527 32.665l-.008.003c-12.737 5.271-27.388-.798-32.663-13.533-2.556-6.169-2.556-12.965 0-19.135zm25.071 79.382c3.578-8.638 10.306-15.365 18.944-18.943l.122-.05c.004-.002.008-.003.011-.004.004-.001.007-.003.011-.005l60.046-24.871 11.349 27.399-27.718 11.481 34.444 83.154-64.81 26.846-32.398-78.216c-3.578-8.639-3.578-18.154-.001-26.791zm74.631 170.925c-11.295-4.03-20.043-12.352-24.633-23.432l-6.119-14.772 64.81-26.846 55.436-22.962 18.85 45.508-74.441 39.957c-5.858 3.144-12.168 4.816-18.553 5.002h-2.526c-4.302-.138-8.615-.953-12.824-2.455z"/></g></svg>