<svg id="Layer_1" enable-background="new 0 0 510 510" height="3em" viewBox="0 0 510 510" width="3em" xmlns="http://www.w3.org/2000/svg">
  <g>
    <path d="m434.5 0c-26.301 0-345.513 0-359 0-41.631 0-75.5 33.869-75.5 75.5v359c0 41.631 33.869 75.5 75.5 75.5h359c41.631 0 75.5-33.869 75.5-75.5v-359c0-41.631-33.869-75.5-75.5-75.5zm-74.5 30v90h-210v-90zm120 404.5c0 25.089-20.411 45.5-45.5 45.5h-164.5v-45h-30v45h-164.5c-25.089 0-45.5-20.411-45.5-45.5v-359c0-25.089 20.411-45.5 45.5-45.5h44.5v120h270v-120h44.5c25.089 0 45.5 20.411 45.5 45.5z"/><path d="m180 60h30v30h-30z"/>
    <path d="m240 60h30v30h-30z"/>
    <path d="m300 60h30v30h-30z"/>
    <path d="m81.754 212.586c-16.646 20.591-23.07 47.218-17.658 73.117.317 2.044-2.665-17.194 16.808 108.439 6.953 32.449 35.682 55.858 69.096 55.858 33.186 0 62.095-23.186 69.096-55.858 19.437-125.402 16.499-106.449 16.808-108.439 5.413-25.899-1.011-52.525-17.658-73.117-35.162-43.493-101.404-43.403-136.492 0zm124.722 67.273-.09.422-16.709 107.963c-4.139 18.425-20.761 31.756-39.677 31.756s-35.538-13.331-39.676-31.756c-.319-2.057 2.673 17.249-16.799-108.385-7.712-35.993 19.742-69.859 56.475-69.859 17.526 0 33.898 7.817 44.916 21.447 11.018 13.629 15.232 31.275 11.56 48.412z"/>
    <path d="m362.215 180c-26.63 0-51.504 11.877-68.246 32.586-16.647 20.592-23.069 47.218-17.657 73.117.316 2.043-2.665-17.195 16.808 108.439 6.952 32.454 35.686 55.858 69.095 55.858 33.187 0 62.094-23.186 69.096-55.858 19.437-125.402 16.499-106.449 16.808-108.439 11.387-54.493-30.206-105.703-85.904-105.703zm56.475 99.859c-19.428 125.347-16.49 106.393-16.799 108.385-4.139 18.425-20.76 31.756-39.676 31.756s-35.538-13.331-39.677-31.756l-16.643-107.536-.156-.849c-3.672-17.137.541-34.783 11.56-48.413 23.141-28.625 66.738-28.566 89.832 0 11.018 13.63 15.231 31.276 11.559 48.413z"/>
  </g>
</svg>
