<svg xmlns="http://www.w3.org/2000/svg" xmlns:xlink="http://www.w3.org/1999/xlink" version="1.1" width="3em" height="3em" x="0" y="0" viewBox="0 0 512 512" style="enable-background:new 0 0 512 512" xml:space="preserve">
  <g>
    <g xmlns="http://www.w3.org/2000/svg"><path d="m512 173.463v-30.038h-450.754v30.038h172.312v124.989l-190.282 93.564c-26.693 13.514-43.276 40.495-43.276 70.415v49.569l278.599-130.972c6.894 2.402 14.297 3.708 22 3.708h72.502v50.78c0 41.964 34.14 76.103 76.103 76.103h16.184v-159.361c0-32.861-26.734-59.594-59.595-59.594h-55.252v-119.2h161.459zm-481.962 290.821v-1.853c0-18.532 10.271-35.244 26.806-43.615l178.124-87.41c2.365 11.334 7.601 21.629 14.91 30.083zm233.557-290.821h56.908v119.2h-56.908zm142.198 149.238c16.298 0 29.557 13.259 29.557 29.557v127.196c-18.653-5.894-32.212-23.363-32.212-43.938v-80.817h-102.54c-18.707 0-34.215-13.952-36.666-31.997h141.861z" fill="#dadfe6" data-original="#000000" style=""/>
      <path d="m294.162 115.338c31.799 0 57.669-25.87 57.669-57.669s-25.87-57.669-57.669-57.669-57.67 25.87-57.67 57.669c.001 31.799 25.871 57.669 57.67 57.669zm0-85.3c15.236 0 27.631 12.396 27.631 27.631 0 15.236-12.395 27.631-27.631 27.631s-27.632-12.395-27.632-27.631c.001-15.236 12.396-27.631 27.632-27.631z" fill="#dadfe6" data-original="#000000" style=""/>
    </g>
  </g>
</svg>
